<svg width="136" height="84" viewBox="0 0 136 84" fill="none" xmlns="http://www.w3.org/2000/svg">
<mask id="path-1-outside-1_2812_130" maskUnits="userSpaceOnUse" x="-1" y="-1" width="138" height="86" fill="black">
<rect fill="white" x="-1" y="-1" width="138" height="86"/>
<path d="M33.64 83.15C27.2767 83.15 21.5267 81.54 16.39 78.32C11.33 75.1 7.34333 70.4233 4.43 64.29C1.51667 58.08 0.0600004 50.5667 0.0600004 41.75C0.0600004 32.9333 1.51667 25.4583 4.43 19.325C7.34333 13.115 11.33 8.39999 16.39 5.18C21.5267 1.96 27.2767 0.349996 33.64 0.349996C40.08 0.349996 45.83 1.96 50.89 5.18C55.95 8.39999 59.9367 13.115 62.85 19.325C65.84 25.4583 67.335 32.9333 67.335 41.75C67.335 50.5667 65.84 58.08 62.85 64.29C59.9367 70.4233 55.95 75.1 50.89 78.32C45.83 81.54 40.08 83.15 33.64 83.15ZM33.64 70.155C37.3967 70.155 40.655 69.1583 43.415 67.165C46.175 65.095 48.3217 61.9517 49.855 57.735C51.465 53.5183 52.27 48.19 52.27 41.75C52.27 35.2333 51.465 29.905 49.855 25.765C48.3217 21.5483 46.175 18.4433 43.415 16.45C40.655 14.38 37.3967 13.345 33.64 13.345C30.0367 13.345 26.8167 14.38 23.98 16.45C21.22 18.4433 19.035 21.5483 17.425 25.765C15.8917 29.905 15.125 35.2333 15.125 41.75C15.125 48.19 15.8917 53.5183 17.425 57.735C19.035 61.9517 21.22 65.095 23.98 67.165C26.8167 69.1583 30.0367 70.155 33.64 70.155ZM76.2906 82V71.995L108.261 41.635C110.944 39.105 112.937 36.8817 114.241 34.965C115.544 33.0483 116.387 31.285 116.771 29.675C117.231 27.9883 117.461 26.4167 117.461 24.96C117.461 21.28 116.196 18.4433 113.666 16.45C111.136 14.38 107.417 13.345 102.511 13.345C98.6006 13.345 95.0356 14.035 91.8156 15.415C88.6723 16.795 85.9506 18.9033 83.6506 21.74L73.1856 13.69C76.329 9.47333 80.5456 6.215 85.8356 3.915C91.2023 1.53833 97.1823 0.349996 103.776 0.349996C109.602 0.349996 114.662 1.30833 118.956 3.22499C123.326 5.065 126.661 7.71 128.961 11.16C131.337 14.61 132.526 18.7117 132.526 23.465C132.526 26.0717 132.181 28.6783 131.491 31.285C130.801 33.815 129.497 36.4983 127.581 39.335C125.664 42.1717 122.866 45.3533 119.186 48.88L91.7006 74.985L88.5956 69.35H135.631V82H76.2906Z"/>
</mask>
<path d="M16.39 78.32L15.8531 79.1637L15.8589 79.1673L16.39 78.32ZM4.43 64.29L3.52467 64.7147L3.52672 64.7191L4.43 64.29ZM4.43 19.325L5.33329 19.7541L5.33532 19.7497L4.43 19.325ZM16.39 5.18L15.8589 4.33269L15.8531 4.33633L16.39 5.18ZM50.89 5.18L51.4269 4.33633L50.89 5.18ZM62.85 19.325L61.9447 19.7497L61.9479 19.7565L61.9511 19.7632L62.85 19.325ZM62.85 64.29L61.949 63.8562L61.9467 63.8609L62.85 64.29ZM50.89 78.32L50.3531 77.4763L50.3531 77.4763L50.89 78.32ZM43.415 67.165L44.0005 67.9757L44.0078 67.9704L44.015 67.965L43.415 67.165ZM49.855 57.735L48.9208 57.3783L48.9179 57.3858L48.9152 57.3933L49.855 57.735ZM49.855 25.765L48.9152 26.1067L48.919 26.1171L48.923 26.1274L49.855 25.765ZM43.415 16.45L42.815 17.25L42.8222 17.2554L42.8295 17.2607L43.415 16.45ZM23.98 16.45L24.5655 17.2607L24.5695 17.2578L23.98 16.45ZM17.425 25.765L16.4907 25.4083L16.4873 25.4177L17.425 25.765ZM17.425 57.735L16.4852 58.0767L16.4879 58.0842L16.4908 58.0917L17.425 57.735ZM23.98 67.165L23.38 67.965L23.3924 67.9743L23.4051 67.9832L23.98 67.165ZM33.64 82.15C27.4548 82.15 21.8905 80.5879 16.9211 77.4727L15.8589 79.1673C21.1628 82.4921 27.0986 84.15 33.64 84.15V82.15ZM16.9269 77.4763C12.0458 74.3702 8.17685 69.8474 5.33328 63.8609L3.52672 64.7191C6.50982 70.9993 10.6142 75.8298 15.8531 79.1637L16.9269 77.4763ZM5.33532 63.8653C2.49948 57.8204 1.06 50.4602 1.06 41.75H-0.94C-0.94 50.6731 0.533857 58.3396 3.52468 64.7147L5.33532 63.8653ZM1.06 41.75C1.06 33.0392 2.49967 25.7195 5.33328 19.7541L3.52672 18.8959C0.533662 25.1971 -0.94 32.8275 -0.94 41.75H1.06ZM5.33532 19.7497C8.17994 13.6862 12.049 9.12777 16.9269 6.02366L15.8531 4.33633C10.611 7.67222 6.50673 12.5438 3.52468 18.9003L5.33532 19.7497ZM16.9211 6.02728C21.8905 2.91214 27.4548 1.35 33.64 1.35V-0.650004C27.0986 -0.650004 21.1628 1.00785 15.8589 4.33271L16.9211 6.02728ZM33.64 1.35C39.9045 1.35 45.4655 2.91335 50.3531 6.02366L51.4269 4.33633C46.1945 1.00665 40.2555 -0.650004 33.64 -0.650004V1.35ZM50.3531 6.02366C55.231 9.12777 59.1001 13.6862 61.9447 19.7497L63.7553 18.9003C60.7733 12.5438 56.669 7.67222 51.4269 4.33633L50.3531 6.02366ZM61.9511 19.7632C64.8581 25.7262 66.335 33.0424 66.335 41.75H68.335C68.335 32.8243 66.8219 25.1905 63.7489 18.8868L61.9511 19.7632ZM66.335 41.75C66.335 50.457 64.8583 57.8138 61.949 63.8562L63.751 64.7238C66.8217 58.3462 68.335 50.6763 68.335 41.75H66.335ZM61.9467 63.8609C59.1032 69.8474 55.2342 74.3702 50.3531 77.4763L51.4269 79.1637C56.6658 75.8298 60.7702 70.9993 63.7533 64.7191L61.9467 63.8609ZM50.3531 77.4763C45.4655 80.5866 39.9045 82.15 33.64 82.15V84.15C40.2555 84.15 46.1945 82.4934 51.4269 79.1637L50.3531 77.4763ZM33.64 71.155C37.5841 71.155 41.0525 70.1048 44.0005 67.9757L42.8295 66.3543C40.2575 68.2119 37.2093 69.155 33.64 69.155V71.155ZM44.015 67.965C46.9708 65.7482 49.2148 62.4218 50.7948 58.0767L48.9152 57.3933C47.4286 61.4815 45.3792 64.4418 42.815 66.365L44.015 67.965ZM50.7892 58.0917C52.457 53.7237 53.27 48.2641 53.27 41.75H51.27C51.27 48.1159 50.473 53.313 48.9208 57.3783L50.7892 58.0917ZM53.27 41.75C53.27 35.162 52.4577 29.6987 50.787 25.4026L48.923 26.1274C50.4723 30.1113 51.27 35.3046 51.27 41.75H53.27ZM50.7948 25.4233C49.2145 21.0773 46.9673 17.782 44.0005 15.6393L42.8295 17.2607C45.3827 19.1047 47.4289 22.0193 48.9152 26.1067L50.7948 25.4233ZM44.015 15.65C41.0663 13.4385 37.5927 12.345 33.64 12.345V14.345C37.2007 14.345 40.2437 15.3215 42.815 17.25L44.015 15.65ZM33.64 12.345C29.8307 12.345 26.4031 13.4439 23.3905 15.6422L24.5695 17.2578C27.2302 15.3161 30.2426 14.345 33.64 14.345V12.345ZM23.3945 15.6393C20.4327 17.7784 18.1481 21.0677 16.4908 25.4083L18.3592 26.1217C19.9219 22.029 22.0073 19.1082 24.5655 17.2607L23.3945 15.6393ZM16.4873 25.4177C14.8981 29.7084 14.125 35.1659 14.125 41.75H16.125C16.125 35.3007 16.8852 30.1016 18.3627 26.1123L16.4873 25.4177ZM14.125 41.75C14.125 48.2601 14.8988 53.7141 16.4852 58.0767L18.3648 57.3933C16.8846 53.3226 16.125 48.1199 16.125 41.75H14.125ZM16.4908 58.0917C18.1478 62.4314 20.429 65.7518 23.38 67.965L24.58 66.365C22.011 64.4382 19.9223 61.472 18.3592 57.3783L16.4908 58.0917ZM23.4051 67.9832C26.417 70.0997 29.8395 71.155 33.64 71.155V69.155C30.2338 69.155 27.2163 68.217 24.5549 66.3468L23.4051 67.9832ZM76.2906 82H75.2906V83H76.2906V82ZM76.2906 71.995L75.602 71.2699L75.2906 71.5656V71.995H76.2906ZM108.261 41.635L107.575 40.9074L107.572 40.9099L108.261 41.635ZM114.241 34.965L113.414 34.4027L113.414 34.4027L114.241 34.965ZM116.771 29.675L115.806 29.4119L115.802 29.4276L115.798 29.4434L116.771 29.675ZM113.666 16.45L113.032 17.224L113.04 17.2298L113.047 17.2355L113.666 16.45ZM91.8156 15.415L91.4217 14.4958L91.4136 14.4993L91.8156 15.415ZM83.6506 21.74L83.0409 22.5326L83.8135 23.1269L84.4274 22.3698L83.6506 21.74ZM73.1856 13.69L72.3839 13.0923L71.7952 13.8821L72.5759 14.4826L73.1856 13.69ZM85.8356 3.915L86.2344 4.83209L86.2406 4.82935L85.8356 3.915ZM118.956 3.22499L118.548 4.13813L118.558 4.14248L118.568 4.14663L118.956 3.22499ZM128.961 11.16L128.129 11.7147L128.133 11.721L128.137 11.7273L128.961 11.16ZM131.491 31.285L132.455 31.5481L132.457 31.5409L131.491 31.285ZM119.186 48.88L119.874 49.6051L119.878 49.602L119.186 48.88ZM91.7006 74.985L90.8248 75.4676L91.45 76.6022L92.3893 75.7101L91.7006 74.985ZM88.5956 69.35V68.35H86.9028L87.7198 69.8326L88.5956 69.35ZM135.631 69.35H136.631V68.35H135.631V69.35ZM135.631 82V83H136.631V82H135.631ZM77.2906 82V71.995H75.2906V82H77.2906ZM76.9792 72.7201L108.949 42.3601L107.572 40.9099L75.602 71.2699L76.9792 72.7201ZM108.947 42.3626C111.656 39.8083 113.707 37.5285 115.068 35.5273L113.414 34.4027C112.168 36.2348 110.232 38.4017 107.575 40.9074L108.947 42.3626ZM115.068 35.5273C116.414 33.5474 117.323 31.6718 117.743 29.9066L115.798 29.4434C115.451 30.8982 114.674 32.5493 113.414 34.4027L115.068 35.5273ZM117.735 29.9381C118.214 28.1822 118.461 26.5212 118.461 24.96H116.461C116.461 26.3121 116.247 27.7944 115.806 29.4119L117.735 29.9381ZM118.461 24.96C118.461 21.023 117.091 17.8761 114.284 15.6645L113.047 17.2355C115.3 19.0106 116.461 21.537 116.461 24.96H118.461ZM114.299 15.676C111.52 13.4023 107.537 12.345 102.511 12.345V14.345C107.298 14.345 110.751 15.3577 113.032 17.224L114.299 15.676ZM102.511 12.345C98.4809 12.345 94.7799 13.0566 91.4217 14.4958L92.2095 16.3341C95.2914 15.0134 98.7203 14.345 102.511 14.345V12.345ZM91.4136 14.4993C88.1151 15.9475 85.2677 18.1579 82.8739 21.1102L84.4274 22.3698C86.6336 19.6488 89.2295 17.6425 92.2176 16.3306L91.4136 14.4993ZM84.2603 20.9474L73.7953 12.8974L72.5759 14.4826L83.0409 22.5326L84.2603 20.9474ZM73.9874 14.2877C77.0166 10.224 81.0883 7.06946 86.2344 4.83207L85.4369 2.99793C80.0029 5.36053 75.6413 8.72261 72.3839 13.0923L73.9874 14.2877ZM86.2406 4.82935C91.4648 2.51574 97.3045 1.35 103.776 1.35V-0.650004C97.0601 -0.650004 90.9398 0.560921 85.4307 3.00065L86.2406 4.82935ZM103.776 1.35C109.495 1.35 114.41 2.2907 118.548 4.13813L119.363 2.31185C114.915 0.325951 109.71 -0.650004 103.776 -0.650004V1.35ZM118.568 4.14663C122.783 5.92176 125.952 8.45045 128.129 11.7147L129.793 10.6053C127.369 6.96954 123.868 4.20824 119.344 2.30336L118.568 4.14663ZM128.137 11.7273C130.384 14.9886 131.526 18.886 131.526 23.465H133.526C133.526 18.5373 132.291 14.2314 129.784 10.5927L128.137 11.7273ZM131.526 23.465C131.526 25.9824 131.193 28.5031 130.524 31.0291L132.457 31.5409C133.169 28.8536 133.526 26.161 133.526 23.465H131.526ZM130.526 31.0219C129.872 33.4195 128.625 36.0031 126.752 38.7751L128.409 39.8949C130.37 36.9936 131.729 34.2105 132.455 31.5481L130.526 31.0219ZM126.752 38.7751C124.889 41.5321 122.145 44.6591 118.494 48.158L119.878 49.602C123.586 46.0476 126.439 42.8112 128.409 39.8949L126.752 38.7751ZM118.497 48.1549L91.012 74.2599L92.3893 75.7101L119.874 49.6051L118.497 48.1549ZM92.5765 74.5024L89.4715 68.8674L87.7198 69.8326L90.8248 75.4676L92.5765 74.5024ZM88.5956 70.35H135.631V68.35H88.5956V70.35ZM134.631 69.35V82H136.631V69.35H134.631ZM135.631 81H76.2906V83H135.631V81Z" fill="black" fill-opacity="0.15" mask="url(#path-1-outside-1_2812_130)"/>
</svg>
