<svg width="150" height="84" viewBox="0 0 150 84" fill="none" xmlns="http://www.w3.org/2000/svg">
<mask id="path-1-outside-1_2812_132" maskUnits="userSpaceOnUse" x="-1" y="-1" width="152" height="86" fill="black">
<rect fill="white" x="-1" y="-1" width="152" height="86"/>
<path d="M33.64 83.15C27.2767 83.15 21.5267 81.54 16.39 78.32C11.33 75.1 7.34333 70.4233 4.43 64.29C1.51667 58.08 0.0600004 50.5667 0.0600004 41.75C0.0600004 32.9333 1.51667 25.4583 4.43 19.325C7.34333 13.115 11.33 8.39999 16.39 5.18C21.5267 1.96 27.2767 0.349996 33.64 0.349996C40.08 0.349996 45.83 1.96 50.89 5.18C55.95 8.39999 59.9367 13.115 62.85 19.325C65.84 25.4583 67.335 32.9333 67.335 41.75C67.335 50.5667 65.84 58.08 62.85 64.29C59.9367 70.4233 55.95 75.1 50.89 78.32C45.83 81.54 40.08 83.15 33.64 83.15ZM33.64 70.155C37.3967 70.155 40.655 69.1583 43.415 67.165C46.175 65.095 48.3217 61.9517 49.855 57.735C51.465 53.5183 52.27 48.19 52.27 41.75C52.27 35.2333 51.465 29.905 49.855 25.765C48.3217 21.5483 46.175 18.4433 43.415 16.45C40.655 14.38 37.3967 13.345 33.64 13.345C30.0367 13.345 26.8167 14.38 23.98 16.45C21.22 18.4433 19.035 21.5483 17.425 25.765C15.8917 29.905 15.125 35.2333 15.125 41.75C15.125 48.19 15.8917 53.5183 17.425 57.735C19.035 61.9517 21.22 65.095 23.98 67.165C26.8167 69.1583 30.0367 70.155 33.64 70.155ZM76.2879 63.715V53.365L115.963 1.49999H131.948L92.8479 53.365L85.3729 51.065H149.198V63.715H76.2879ZM120.448 82V63.715L120.908 51.065V34.85H134.938V82H120.448Z"/>
</mask>
<path d="M16.39 78.32L15.8531 79.1637L15.8589 79.1673L16.39 78.32ZM4.43 64.29L3.52467 64.7147L3.52672 64.7191L4.43 64.29ZM4.43 19.325L5.33329 19.7541L5.33532 19.7497L4.43 19.325ZM16.39 5.18L15.8589 4.33269L15.8531 4.33633L16.39 5.18ZM50.89 5.18L51.4269 4.33633L50.89 5.18ZM62.85 19.325L61.9447 19.7497L61.9479 19.7565L61.9511 19.7632L62.85 19.325ZM62.85 64.29L61.949 63.8562L61.9467 63.8609L62.85 64.29ZM50.89 78.32L50.3531 77.4763L50.3531 77.4763L50.89 78.32ZM43.415 67.165L44.0005 67.9757L44.0078 67.9704L44.015 67.965L43.415 67.165ZM49.855 57.735L48.9208 57.3783L48.9179 57.3858L48.9152 57.3933L49.855 57.735ZM49.855 25.765L48.9152 26.1067L48.919 26.1171L48.923 26.1274L49.855 25.765ZM43.415 16.45L42.815 17.25L42.8222 17.2554L42.8295 17.2607L43.415 16.45ZM23.98 16.45L24.5655 17.2607L24.5695 17.2578L23.98 16.45ZM17.425 25.765L16.4907 25.4083L16.4873 25.4177L17.425 25.765ZM17.425 57.735L16.4852 58.0767L16.4879 58.0842L16.4908 58.0917L17.425 57.735ZM23.98 67.165L23.38 67.965L23.3924 67.9743L23.4051 67.9832L23.98 67.165ZM33.64 82.15C27.4548 82.15 21.8905 80.5879 16.9211 77.4727L15.8589 79.1673C21.1628 82.4921 27.0986 84.15 33.64 84.15V82.15ZM16.9269 77.4763C12.0458 74.3702 8.17685 69.8474 5.33328 63.8609L3.52672 64.7191C6.50982 70.9993 10.6142 75.8298 15.8531 79.1637L16.9269 77.4763ZM5.33532 63.8653C2.49948 57.8204 1.06 50.4602 1.06 41.75H-0.94C-0.94 50.6731 0.533857 58.3396 3.52468 64.7147L5.33532 63.8653ZM1.06 41.75C1.06 33.0392 2.49967 25.7195 5.33328 19.7541L3.52672 18.8959C0.533662 25.1971 -0.94 32.8275 -0.94 41.75H1.06ZM5.33532 19.7497C8.17994 13.6862 12.049 9.12777 16.9269 6.02366L15.8531 4.33633C10.611 7.67222 6.50673 12.5438 3.52468 18.9003L5.33532 19.7497ZM16.9211 6.02728C21.8905 2.91214 27.4548 1.35 33.64 1.35V-0.650004C27.0986 -0.650004 21.1628 1.00785 15.8589 4.33271L16.9211 6.02728ZM33.64 1.35C39.9045 1.35 45.4655 2.91335 50.3531 6.02366L51.4269 4.33633C46.1945 1.00665 40.2555 -0.650004 33.64 -0.650004V1.35ZM50.3531 6.02366C55.231 9.12777 59.1001 13.6862 61.9447 19.7497L63.7553 18.9003C60.7733 12.5438 56.669 7.67222 51.4269 4.33633L50.3531 6.02366ZM61.9511 19.7632C64.8581 25.7262 66.335 33.0424 66.335 41.75H68.335C68.335 32.8243 66.8219 25.1905 63.7489 18.8868L61.9511 19.7632ZM66.335 41.75C66.335 50.457 64.8583 57.8138 61.949 63.8562L63.751 64.7238C66.8217 58.3462 68.335 50.6763 68.335 41.75H66.335ZM61.9467 63.8609C59.1032 69.8474 55.2342 74.3702 50.3531 77.4763L51.4269 79.1637C56.6658 75.8298 60.7702 70.9993 63.7533 64.7191L61.9467 63.8609ZM50.3531 77.4763C45.4655 80.5866 39.9045 82.15 33.64 82.15V84.15C40.2555 84.15 46.1945 82.4934 51.4269 79.1637L50.3531 77.4763ZM33.64 71.155C37.5841 71.155 41.0525 70.1048 44.0005 67.9757L42.8295 66.3543C40.2575 68.2119 37.2093 69.155 33.64 69.155V71.155ZM44.015 67.965C46.9708 65.7482 49.2148 62.4218 50.7948 58.0767L48.9152 57.3933C47.4286 61.4815 45.3792 64.4418 42.815 66.365L44.015 67.965ZM50.7892 58.0917C52.457 53.7237 53.27 48.2641 53.27 41.75H51.27C51.27 48.1159 50.473 53.313 48.9208 57.3783L50.7892 58.0917ZM53.27 41.75C53.27 35.162 52.4577 29.6987 50.787 25.4026L48.923 26.1274C50.4723 30.1113 51.27 35.3046 51.27 41.75H53.27ZM50.7948 25.4233C49.2145 21.0773 46.9673 17.782 44.0005 15.6393L42.8295 17.2607C45.3827 19.1047 47.4289 22.0193 48.9152 26.1067L50.7948 25.4233ZM44.015 15.65C41.0663 13.4385 37.5927 12.345 33.64 12.345V14.345C37.2007 14.345 40.2437 15.3215 42.815 17.25L44.015 15.65ZM33.64 12.345C29.8307 12.345 26.4031 13.4439 23.3905 15.6422L24.5695 17.2578C27.2302 15.3161 30.2426 14.345 33.64 14.345V12.345ZM23.3945 15.6393C20.4327 17.7784 18.1481 21.0677 16.4908 25.4083L18.3592 26.1217C19.9219 22.029 22.0073 19.1082 24.5655 17.2607L23.3945 15.6393ZM16.4873 25.4177C14.8981 29.7084 14.125 35.1659 14.125 41.75H16.125C16.125 35.3007 16.8852 30.1016 18.3627 26.1123L16.4873 25.4177ZM14.125 41.75C14.125 48.2601 14.8988 53.7141 16.4852 58.0767L18.3648 57.3933C16.8846 53.3226 16.125 48.1199 16.125 41.75H14.125ZM16.4908 58.0917C18.1478 62.4314 20.429 65.7518 23.38 67.965L24.58 66.365C22.011 64.4382 19.9223 61.472 18.3592 57.3783L16.4908 58.0917ZM23.4051 67.9832C26.417 70.0997 29.8395 71.155 33.64 71.155V69.155C30.2338 69.155 27.2163 68.217 24.5549 66.3468L23.4051 67.9832ZM76.2879 63.715H75.2879V64.715H76.2879V63.715ZM76.2879 53.365L75.4937 52.7574L75.2879 53.0264V53.365H76.2879ZM115.963 1.49999V0.499995H115.469L115.169 0.892414L115.963 1.49999ZM131.948 1.49999L132.746 2.10198L133.954 0.499995H131.948V1.49999ZM92.8479 53.365L92.5538 54.3208L93.2242 54.527L93.6464 53.967L92.8479 53.365ZM85.3729 51.065V50.065L85.0788 52.0208L85.3729 51.065ZM149.198 51.065H150.198V50.065H149.198V51.065ZM149.198 63.715V64.715H150.198V63.715H149.198ZM120.448 82H119.448V83H120.448V82ZM120.448 63.715L119.449 63.6787L119.448 63.6968V63.715H120.448ZM120.908 51.065L121.907 51.1013L121.908 51.0832V51.065H120.908ZM120.908 34.85V33.85H119.908V34.85H120.908ZM134.938 34.85H135.938V33.85H134.938V34.85ZM134.938 82V83H135.938V82H134.938ZM77.2879 63.715V53.365H75.2879V63.715H77.2879ZM77.0822 53.9726L116.757 2.10758L115.169 0.892414L75.4937 52.7574L77.0822 53.9726ZM115.963 2.49999H131.948V0.499995H115.963V2.49999ZM131.149 0.898013L92.0494 52.763L93.6464 53.967L132.746 2.10198L131.149 0.898013ZM93.142 52.4092L85.667 50.1092L85.0788 52.0208L92.5538 54.3208L93.142 52.4092ZM85.3729 52.065H149.198V50.065H85.3729V52.065ZM148.198 51.065V63.715H150.198V51.065H148.198ZM149.198 62.715H76.2879V64.715H149.198V62.715ZM121.448 82V63.715H119.448V82H121.448ZM121.447 63.7513L121.907 51.1013L119.909 51.0287L119.449 63.6787L121.447 63.7513ZM121.908 51.065V34.85H119.908V51.065H121.908ZM120.908 35.85H134.938V33.85H120.908V35.85ZM133.938 34.85V82H135.938V34.85H133.938ZM134.938 81H120.448V83H134.938V81Z" fill="black" fill-opacity="0.15" mask="url(#path-1-outside-1_2812_132)"/>
</svg>
