<svg width="28" height="32" viewBox="0 0 28 32" fill="none" xmlns="http://www.w3.org/2000/svg">
<path d="M4.34998 1.94062H20.551L26.728 7.8826V30.7526H4.34998V28.1422H3.34998V31.713H27.728V7.485L20.965 0.980225H3.34998V13.5374H4.34998V1.94062Z" fill="white"/>
<path d="M1.343 21.8957H2.117C2.7 21.8957 3.195 21.6959 3.605 21.2954C4.01499 20.8959 4.21899 20.4138 4.21899 19.8491V18.6082C4.21899 18.0214 4.03899 17.5393 3.67899 17.1619C3.291 16.7662 2.77 16.5684 2.117 16.5684H0V25.1149H1.343V21.8957ZM1.343 17.886H2.153C2.385 17.886 2.57 17.9542 2.711 18.0906C2.85 18.2279 2.92 18.4066 2.92 18.6303V19.8788C2.92 20.0834 2.845 20.2582 2.696 20.4042C2.547 20.5492 2.366 20.6222 2.153 20.6222H1.343V17.886V17.886Z" fill="white"/>
<path d="M9.51001 23.0694V18.6026C9.51001 18.0427 9.30501 17.5635 8.89601 17.163C8.48601 16.7625 7.98801 16.5627 7.40101 16.5627H5.29102V25.116H7.40001C7.98301 25.116 8.48001 24.9163 8.89201 24.5158C9.30401 24.1153 9.51001 23.6332 9.51001 23.0694ZM8.20401 23.0963C8.20401 23.297 8.13101 23.4709 7.98401 23.6188C7.83801 23.7657 7.65701 23.8397 7.44401 23.8397H6.63401V17.8785H7.44401C7.65201 17.8785 7.83101 17.9505 7.98001 18.0965C8.12901 18.2425 8.20401 18.4173 8.20401 18.6218V23.0963Z" fill="white"/>
<path d="M14.51 17.8583V16.5627H10.689V25.116H12.032V21.4877H13.842V20.1911H12.032V17.8583H14.51Z" fill="white"/>
</svg>
