<svg width="20" height="20" viewBox="0 0 20 20" fill="none" xmlns="http://www.w3.org/2000/svg">
<g clip-path="url(#clip0_2812_223)">
<path d="M10 0C4.47721 0 0 4.47721 0 10C0 15.5228 4.47721 20 10 20C15.5228 20 20 15.5228 20 10C20 4.47721 15.5228 0 10 0ZM15.6252 4.64775L13.3862 15.1628C13.3442 15.3693 13.109 15.4705 12.9303 15.3585L9.48714 13.0749L7.67602 14.7603C7.5148 14.8982 7.26517 14.8311 7.195 14.6307L6.01578 10.9115L2.84921 9.61287C2.60626 9.50215 2.60971 9.11523 2.85874 9.01849L15.22 4.30625C15.4427 4.21987 15.6727 4.41373 15.6252 4.64775Z" fill="white"/>
<path d="M7.57546 13.5278L7.77663 11.6159L13.3611 6.15723L6.61951 10.5845L7.57546 13.5278Z" fill="white"/>
</g>
<defs>
<clipPath id="clip0_2812_223">
<rect width="20" height="20" fill="white"/>
</clipPath>
</defs>
</svg>
