<svg width="30" height="30" viewBox="0 0 30 30" fill="none" xmlns="http://www.w3.org/2000/svg">
<g clip-path="url(#clip0_1_51)">
<path d="M18.9085 7.44342H11.017C9.04225 7.44342 7.43555 9.05013 7.43555 11.0249V18.9888C7.43555 20.9636 9.04225 22.5703 11.017 22.5703H18.9085C20.8833 22.5703 22.49 20.9636 22.49 18.9888V11.0249C22.49 9.05013 20.8833 7.44342 18.9085 7.44342ZM14.9778 19.7754C12.301 19.7754 10.1233 17.6209 10.1233 14.9726C10.1233 12.3244 12.3013 10.1698 14.9778 10.1698C17.6544 10.1698 19.8323 12.3244 19.8323 14.9726C19.8323 17.6209 17.6547 19.7754 14.9778 19.7754ZM19.9187 11.1155C19.2878 11.1155 18.7765 10.6042 18.7765 9.97333C18.7765 9.34245 19.2878 8.83112 19.9187 8.83112C20.5496 8.83112 21.0609 9.34245 21.0609 9.97333C21.0609 10.6042 20.5496 11.1155 19.9187 11.1155Z" fill="white"/>
<path d="M15 0C6.71581 0 0 6.71581 0 15C0 23.2842 6.71581 30 15 30C23.2842 30 30 23.2842 30 15C30 6.71581 23.2842 0 15 0ZM24.2615 18.9888C24.2615 21.9406 21.86 24.3418 18.9085 24.3418H11.017C8.06518 24.3418 5.66394 21.9403 5.66394 18.9888V11.0249C5.66394 8.07309 8.06548 5.67184 11.017 5.67184H18.9085C21.8603 5.67184 24.2615 8.07339 24.2615 11.0249V18.9888Z" fill="white"/>
<path d="M14.9778 11.9381C13.2759 11.9381 11.8915 13.2993 11.8915 14.9726C11.8915 16.6459 13.2759 18.0072 14.9778 18.0072C16.6797 18.0072 18.0641 16.6459 18.0641 14.9726C18.0641 13.2993 16.6797 11.9381 14.9778 11.9381Z" fill="white"/>
</g>
<defs>
<clipPath id="clip0_1_51">
<rect width="30" height="30" fill="white"/>
</clipPath>
</defs>
</svg>
