<svg width="1280" height="1235" viewBox="0 0 1280 1235" fill="none" xmlns="http://www.w3.org/2000/svg">
<path d="M277.566 679.072C67.096 610.403 -308.415 422.511 -126.7 220.297C100.443 -32.4709 601.009 -199.846 428.151 -646" stroke="black" stroke-opacity="0.15"/>
<path d="M281.204 691.511C77.52 604.759 -280.186 384.855 -81.5388 199.247C166.771 -32.762 680.02 -155.873 546.704 -615.394" stroke="black" stroke-opacity="0.15"/>
<path d="M283.206 704.713C87.8581 600.54 -249.321 350.296 -35.2527 182.708C232.333 -26.7769 754.359 -104.687 661.6 -574.079" stroke="black" stroke-opacity="0.15"/>
<path d="M283.512 718.532C97.9863 597.73 -216.1 319.051 11.7604 170.758C296.585 -14.6082 823.415 -46.7244 771.92 -522.414" stroke="black" stroke-opacity="0.15"/>
<path d="M282.073 732.819C107.783 596.306 -180.82 291.314 59.0979 163.444C358.995 3.60789 886.619 17.5302 876.779 -460.838" stroke="black" stroke-opacity="0.15"/>
<path d="M278.857 747.42C117.127 596.236 -143.795 267.25 106.354 160.778C419.041 27.6872 943.444 87.542 975.334 -389.863" stroke="black" stroke-opacity="0.15"/>
<path d="M273.842 762.177C125.905 597.473 -105.352 246.999 153.125 162.733C476.221 57.4015 993.412 162.733 1066.79 -310.076" stroke="black" stroke-opacity="0.15"/>
<path d="M267.022 776.935C134.002 599.964 -65.8282 230.668 199.009 169.251C530.056 92.4796 1036.1 242.487 1150.4 -222.128" stroke="black" stroke-opacity="0.15"/>
<path d="M258.403 791.535C141.314 603.644 -25.57 218.337 243.613 180.236C580.091 132.609 1071.13 326.15 1225.5 -126.734" stroke="black" stroke-opacity="0.15"/>
<path d="M248.007 805.822C147.738 608.441 15.0714 210.055 286.55 195.56C625.899 177.441 1098.21 413.042 1291.45 -24.6653" stroke="black" stroke-opacity="0.15"/>
<path d="M235.866 819.642C153.182 614.273 55.7417 205.841 327.451 215.061C667.088 226.587 1117.06 502.456 1347.72 83.2575" stroke="black" stroke-opacity="0.15"/>
<path d="M222.029 832.844C157.559 621.05 96.0864 205.679 365.958 238.546C703.298 279.629 1127.52 593.666 1393.84 196.166" stroke="black" stroke-opacity="0.15"/>
<path d="M206.556 845.283C160.79 628.676 135.753 209.528 401.734 265.791C734.209 336.119 1129.44 685.934 1429.39 313.158" stroke="black" stroke-opacity="0.15"/>
<path d="M189.519 856.819C162.806 637.048 174.396 217.313 434.46 296.543C759.541 395.581 1122.78 778.512 1454.08 433.296" stroke="black" stroke-opacity="0.15"/>
<path d="M171.003 867.32C163.546 646.057 211.674 228.929 463.844 330.524C779.056 457.517 1107.54 870.65 1467.67 555.623" stroke="black" stroke-opacity="0.15"/>
<path d="M151.104 876.66C162.96 655.589 247.26 244.243 489.615 367.43C792.56 521.412 1083.79 961.602 1470 679.161" stroke="black" stroke-opacity="0.15"/>
<path d="M129.929 884.724C161.007 665.527 280.837 263.094 511.534 406.934C799.905 586.734 1051.66 1050.63 1461.02 802.925" stroke="black" stroke-opacity="0.15"/>
<path d="M107.593 891.405C157.657 675.751 312.106 285.293 529.388 448.692C800.991 652.941 1011.36 1137.01 1440.75 925.93" stroke="black" stroke-opacity="0.15"/>
<path d="M84.2218 896.606C152.891 686.136 340.783 310.625 542.997 492.34C795.765 719.484 963.14 1220.05 1409.29 1047.19" stroke="black" stroke-opacity="0.15"/>
<path d="M59.9477 900.245C146.699 696.561 366.604 338.855 552.211 537.502C784.22 785.812 907.332 1299.06 1366.85 1165.75" stroke="black" stroke-opacity="0.15"/>
<path d="M34.9107 902.247C139.084 706.899 389.328 369.719 556.916 583.788C766.401 851.373 844.311 1373.4 1313.7 1280.64" stroke="black" stroke-opacity="0.15"/>
<path d="M9.25612 902.552C130.059 717.027 408.738 402.941 557.031 630.801C742.397 915.626 774.513 1442.46 1250.2 1390.96" stroke="black" stroke-opacity="0.15"/>
<path d="M-16.8657 901.114C119.647 726.823 424.64 438.221 552.509 678.138C712.346 978.035 698.423 1505.66 1176.79 1495.82" stroke="black" stroke-opacity="0.15"/>
<path d="M-43.301 897.898C107.883 736.168 436.868 475.246 543.341 725.395C676.431 1038.08 616.577 1562.48 1093.98 1594.37" stroke="black" stroke-opacity="0.15"/>
<path d="M-69.8937 892.883C94.8104 744.945 445.285 513.689 529.55 772.166C634.882 1095.26 529.55 1612.45 1002.36 1685.83" stroke="black" stroke-opacity="0.15"/>
</svg>
